<?xml version="1.0" encoding="utf-8"?>
<!-- Generator: Adobe Illustrator 25.2.3, SVG Export Plug-In . SVG Version: 6.00 Build 0)  -->
<svg version="1.1" id="Layer_1" xmlns="http://www.w3.org/2000/svg" xmlns:xlink="http://www.w3.org/1999/xlink" x="0px" y="0px"
	 viewBox="0 0 64 64" style="enable-background:new 0 0 64 64;" xml:space="preserve" width="64" height="64">
<style type="text/css">
	.st0{fill:#C9C9C9;}
	.st1{clip-path:url(#SVGID_2_);}
	.st2{fill:#BCBCBC;}
	.st3{fill:#D0D0D0;}
	.st4{fill:#A06A52;}
	.st5{clip-path:url(#SVGID_4_);}
	.st6{fill:#95634D;}
	.st7{fill:#A6735D;}
</style>
<path class="st0" d="M44.9,44.3c1.2-3.6,0.7-7.4-8-15.3c-9.4-7.1-13.2-6.9-16.5-5c-1.7,0.9-9.7,13.9-11.1,18.7
	c-1.6,5.4-2.1,15.4,0.9,18.5c3.6,2.4,13.3,0,18.4-2.5C33,56.4,44.3,46.1,44.9,44.3z"/>
<g>
	<defs>
		<path id="SVGID_1_" d="M44.9,44.3c1.2-3.6,0.7-7.4-8-15.3c-9.4-7.1-13.2-6.9-16.5-5c-1.7,0.9-9.7,13.9-11.1,18.7
			c-1.6,5.4-2.1,15.4,0.9,18.5c3.6,2.4,13.3,0,18.4-2.5C33,56.4,44.3,46.1,44.9,44.3z"/>
	</defs>
	<clipPath id="SVGID_2_">
		<use xlink:href="#SVGID_1_"  style="overflow:visible;"/>
	</clipPath>
	<g class="st1">
		<path class="st2" d="M33.6,24.7c0,0-10.7,20.9-15.4,26.9C23,45.8,37,33.3,41,31.3S33.6,24.7,33.6,24.7z"/>
		<path class="st2" d="M35,22.1c-12.7,6.1-14.5,7.8-17.8,11.7S9.9,50.5,9.7,56.4S9.5,64,9.5,64L4.3,40l17.2-22.1L35,22.1z"/>
		<path class="st3" d="M46,37.7c0,0-7.1,10.1-11.7,14.1s-14.1,11-14.1,11l-1.7,0.1c0,0,11.6-9.3,15.1-13c3.4-3.7,11-14.5,11-14.5
			L46,37.7z"/>
	</g>
</g>
<path class="st4" d="M40.2,33.6c0.8-1.1,0.3-3.6,1.2-5.1C42.4,27,65.2,11,57.4,4.3c-8-6.5-19.5,19-20.9,20.2
	c-1.3,1.2-3.8,1.1-4.8,2.1c-1,1,2.7,5.3,2.7,5.3S39.4,34.7,40.2,33.6z"/>
<g>
	<defs>
		<path id="SVGID_3_" d="M40.2,33.6c0.8-1.1,0.3-3.6,1.2-5.1C42.4,27,65.2,11,57.4,4.3c-8-6.5-19.5,19-20.9,20.2
			c-1.3,1.2-3.8,1.1-4.8,2.1c-1,1,2.7,5.3,2.7,5.3S39.4,34.7,40.2,33.6z"/>
	</defs>
	<clipPath id="SVGID_4_">
		<use xlink:href="#SVGID_3_"  style="overflow:visible;"/>
	</clipPath>
	<g class="st5">
		<path class="st6" d="M59.7,2.4c0,0-8.3,4.1-12.6,10S40.2,24,37.9,26.3c-2.3,2.3-7.5,2-7.5,2l0.5-9L46.1,0L59.7,2.4z"/>
	</g>
</g>
<path class="st0" d="M39.2,30.1c-0.7,0.9-2,1-2.9,0.3c-0.9-0.7-1-2-0.3-2.9c0.7-0.9,2-1,2.9-0.3C39.8,27.9,39.9,29.2,39.2,30.1z"/>
<path class="st7" d="M58.3,6.3c0.3,0.2-0.4,3.5-2.1,6.5c-3.2,5.6-9,8-9.3,7.7c-0.3-0.3,3.7-2.6,7.8-8.5C57,8.7,58,6.1,58.3,6.3z"/>
<path class="st4" d="M-0.7,22.9C5.7-2.1,25.2-0.6,25.2-0.6s-7.8,1.2-25.8,0"/>
<path class="st7" d="M4.5,2.2c0,0,10.8-2.8,6,0S4.5,2.2,4.5,2.2z"/>
<path class="st6" d="M2.8,0.2C1.1,5.8-0.1,24.3-0.1,24.3L-0.2-0.2"/>
</svg>
