<svg xmlns="http://www.w3.org/2000/svg" xmlns:xlink="http://www.w3.org/1999/xlink" viewBox="0 0 1360.42 1573.3" width="64" height="64"><defs><style>.a{fill:#c9c9c9;}.b{fill:#a06a52;}.c{clip-path:url(#a);}.d{fill:#bcbcbc;}.e{fill:#d0d0d0;}.f{clip-path:url(#b);}.g{fill:#95634d;}.h{fill:#a6735d;}</style><clipPath id="a" transform="translate(90.91 80.44)"><path class="a" d="M907,1009.22c29.3-88.86,18.38-182.82-196.21-377.17C480.32,456.84,386,463.38,304,508.53,262.77,531.24,64.84,850.4,30.84,969c-38.39,133.87-51.09,378,22.32,455.13,89.31,58,327,.61,451.48-61.74C615,1307.15,892.27,1053.91,907,1009.22Z"/></clipPath><clipPath id="b" transform="translate(90.91 80.44)"><path class="b" d="M791.22,745.78C811.28,718,798,658.46,821.06,621s585-431.93,393.17-595.26C1018.42-132.82,734,492.11,701.41,521.64s-93.53,27.45-117.18,52.28,67.55,129.22,67.55,129.22S771.16,773.59,791.22,745.78Z"/></clipPath></defs><path class="a" d="M907,1009.22c29.3-88.86,18.38-182.82-196.21-377.17C480.32,456.84,386,463.38,304,508.53,262.77,531.24,64.84,850.4,30.84,969c-38.39,133.87-51.09,378,22.32,455.13,89.31,58,327,.61,451.48-61.74C615,1307.15,892.27,1053.91,907,1009.22Z" transform="translate(90.91 80.44)"/><g class="c"><path class="d" d="M628.61,526.88s-261.83,514.31-379.48,661.21c118.21-142.37,463.72-451.06,561-500S628.61,526.88,628.61,526.88Z" transform="translate(90.91 80.44)"/><path class="d" d="M662,462.35C350.6,613.4,305.67,652.91,224.21,751S45.75,1160.72,41.63,1306.87s-4.85,186-4.85,186L-90.91,901.72,332.24,358Z" transform="translate(90.91 80.44)"/><path class="e" d="M932.86,845.63S758.35,1093.45,644.49,1193s-345.4,271.1-345.4,271.1l-41.74,1.73s285.92-227.51,370.18-319.25,270-355.41,270-355.41Z" transform="translate(90.91 80.44)"/></g><path class="b" d="M791.22,745.78C811.28,718,798,658.46,821.06,621s585-431.93,393.17-595.26C1018.42-132.82,734,492.11,701.41,521.64s-93.53,27.45-117.18,52.28,67.55,129.22,67.55,129.22S771.16,773.59,791.22,745.78Z" transform="translate(90.91 80.44)"/><g class="f"><path class="g" d="M1269.5-21.37S1064.6,79.36,960.92,223.7,790.15,509.15,733.15,566.19,549.5,615.7,549.5,615.7l11.9-222.43,374-473.71Z" transform="translate(90.91 80.44)"/></g><path class="a" d="M765.47,658.72a50.54,50.54,0,1,1-6.6-71.17A50.55,50.55,0,0,1,765.47,658.72Z" transform="translate(90.91 80.44)"/><path class="h" d="M1236.24,74.07c7.74,4.26-9.57,86.32-51.84,159.64-79.81,138.41-220.55,197-228,188.11-6.48-7.76,91.38-63.8,191.33-208.17C1203,133.89,1229.09,70.15,1236.24,74.07Z" transform="translate(90.91 80.44)"/></svg>